<svg xmlns="http://www.w3.org/2000/svg" viewBox="0 0 119.17 40.431">
  <defs>
    <style>
      .cls-1 {
        fill: #27262a;
      }
    </style>
  </defs>
  <g id="TAStradesoft" transform="translate(0)">
    <g id="Group_1" data-name="Group 1" transform="translate(17.074 21.154)">
      <path id="Path_23" data-name="Path 23" class="cls-1" d="M65.962,77.478H62.319V75.231h9.958v2.247H68.634v9.906H65.962V77.478Z" transform="translate(-62.319 -74.942)"/>
      <path id="Path_24" data-name="Path 24" class="cls-1" d="M97.449,75.232h2.741l4.545,12.153h-2.775l-.919-2.706H96.5l-.953,2.706H92.836Zm-.256,7.455h3.149l-1.532-4.459h-.034Z" transform="translate(-83.77 -74.942)"/>
      <path id="Path_25" data-name="Path 25" class="cls-1" d="M137.341,82.666c0,1.616,1.259,2.246,2.689,2.246.936,0,2.366-.272,2.366-1.515,0-1.31-1.821-1.532-3.608-2.009-1.8-.477-3.626-1.174-3.626-3.455,0-2.485,2.349-3.677,4.545-3.677,2.537,0,4.868,1.107,4.868,3.915h-2.587c-.085-1.464-1.123-1.838-2.4-1.838-.851,0-1.838.357-1.838,1.378,0,.936.579,1.056,3.625,1.838.885.221,3.608.784,3.608,3.541,0,2.229-1.753,3.9-5.055,3.9-2.69,0-5.209-1.328-5.174-4.323Z" transform="translate(-113.233 -74.257)"/>
    </g>
    <g id="Group_2" data-name="Group 2" transform="translate(49.455 21.308)">
      <path id="Path_26" data-name="Path 26" class="cls-1" d="M174.258,80.276h1.753v1.277h-1.753v5.464c0,.664.187.783,1.089.783h.664v1.276H174.9c-1.5,0-2.094-.306-2.094-1.923v-5.6h-1.5V80.276h1.5V77.638h1.447Z" transform="translate(-171.313 -76.787)"/>
      <path id="Path_27" data-name="Path 27" class="cls-1" d="M192.251,86.029h1.362v1.855h.034a3.2,3.2,0,0,1,3.234-2.059v1.532c-2.332,0-3.183,1.328-3.183,3.557v3.915h-1.447Z" transform="translate(-186.03 -82.54)"/>
      <path id="Path_28" data-name="Path 28" class="cls-1" d="M219.065,94.8a1.952,1.952,0,0,1-1.039.238c-.749,0-1.225-.408-1.225-1.362a3.9,3.9,0,0,1-3.1,1.362c-1.6,0-2.911-.714-2.911-2.468,0-1.991,1.481-2.417,2.979-2.706,1.6-.306,2.962-.2,2.962-1.294,0-1.259-1.038-1.463-1.957-1.463-1.226,0-2.127.374-2.2,1.668h-1.447c.085-2.179,1.77-2.945,3.727-2.945,1.583,0,3.3.358,3.3,2.417v4.527c0,.681,0,.988.46.988a1.236,1.236,0,0,0,.443-.086V94.8Zm-2.35-4.511a7.445,7.445,0,0,1-2.621.6c-.953.17-1.77.511-1.77,1.583,0,.953.817,1.294,1.7,1.294,1.907,0,2.689-1.192,2.689-1.992V90.291Z" transform="translate(-199.063 -82.546)"/>
      <path id="Path_29" data-name="Path 29" class="cls-1" d="M250.795,87.385h-1.447V86.194h-.034a2.96,2.96,0,0,1-2.808,1.395c-2.706,0-4.051-2.144-4.051-4.629s1.327-4.579,4.017-4.579a3.368,3.368,0,0,1,2.842,1.379h.034V75.232h1.447Zm-4.085-1.072c1.94,0,2.689-1.668,2.689-3.319,0-1.736-.783-3.336-2.775-3.336-1.974,0-2.638,1.685-2.638,3.4C243.987,84.713,244.838,86.313,246.71,86.313Z" transform="translate(-221.319 -75.096)"/>
      <path id="Path_30" data-name="Path 30" class="cls-1" d="M285.307,92.045a3.547,3.547,0,0,1-3.762,3c-2.808,0-4.136-1.94-4.221-4.629,0-2.638,1.736-4.579,4.136-4.579,3.115,0,4.068,2.911,3.983,5.038h-6.587a2.592,2.592,0,0,0,2.74,2.894,2.121,2.121,0,0,0,2.281-1.719h1.429Zm-1.4-2.451a2.532,2.532,0,0,0-2.536-2.485,2.506,2.506,0,0,0-2.519,2.485Z" transform="translate(-245.829 -82.546)"/>
      <path id="Path_31" data-name="Path 31" class="cls-1" d="M310.145,92.061c.051,1.294,1.175,1.7,2.366,1.7.9,0,2.128-.2,2.128-1.311,0-1.124-1.43-1.31-2.877-1.634-1.43-.324-2.877-.8-2.877-2.485,0-1.77,1.753-2.5,3.286-2.5,1.941,0,3.489.613,3.608,2.757h-1.447c-.1-1.123-1.09-1.48-2.043-1.48-.868,0-1.872.238-1.872,1.123,0,1.038,1.532,1.209,2.876,1.532,1.447.323,2.877.8,2.877,2.5,0,2.094-1.958,2.774-3.745,2.774-1.974,0-3.642-.8-3.728-2.978Z" transform="translate(-267.883 -82.546)"/>
      <path id="Path_32" data-name="Path 32" class="cls-1" d="M342.8,85.832c2.791,0,4.272,2.026,4.272,4.613,0,2.57-1.481,4.6-4.272,4.6s-4.273-2.025-4.273-4.6C338.526,87.858,340.007,85.832,342.8,85.832Zm0,7.932c1.515,0,2.74-1.192,2.74-3.319,0-2.145-1.225-3.336-2.74-3.336s-2.74,1.191-2.74,3.336C340.059,92.572,341.284,93.764,342.8,93.764Z" transform="translate(-288.848 -82.546)"/>
      <path id="Path_33" data-name="Path 33" class="cls-1" d="M372.415,79.539h-1.481V78.263h1.481v-1.31c0-1.43.851-2.179,2.434-2.179a3.55,3.55,0,0,1,.936.136v1.26a2.708,2.708,0,0,0-.817-.119c-.7,0-1.107.221-1.107.987v1.226h1.7v1.277h-1.7v7.523h-1.447V79.539Z" transform="translate(-311.628 -74.773)"/>
      <path id="Path_34" data-name="Path 34" class="cls-1" d="M391.559,80.276h1.753v1.277h-1.753v5.464c0,.664.188.783,1.089.783h.664v1.276H392.2c-1.5,0-2.093-.306-2.093-1.923v-5.6h-1.5V80.276h1.5V77.638h1.447v2.638Z" transform="translate(-324.055 -76.787)"/>
    </g>
    <path id="Path_35" data-name="Path 35" class="cls-1" d="M23.674,91.011a4.386,4.386,0,0,0,1.12,2.39l-7.168,5.076s-2.239-3.434-2.239-5.226Z" transform="translate(-12.256 -64.879)"/>
    <path id="Path_36" data-name="Path 36" class="cls-1" d="M39.507,61.534a8.09,8.09,0,0,0-1.045,2.089l-4.48-.9a10.74,10.74,0,0,1,1.792-3.881Z" transform="translate(-25.327 -42.27)"/>
    <path id="Path_37" data-name="Path 37" class="cls-1" d="M91.575,13.108a23.276,23.276,0,0,1,10.6,9.257l-12.543,7.39s-2.24-2.909-3.882-2.909Z" transform="translate(-61.716 -10.121)"/>
    <path id="Path_38" data-name="Path 38" class="cls-1" d="M50.234,13.256l-1.045,11.5s-4.629-.15-5.973,1.942L36.5,16.99S41.409,12.212,50.234,13.256Z" transform="translate(-27.094 -10.12)"/>
    <path id="Path_39" data-name="Path 39" class="cls-1" d="M38.248,111.115,36.2,112.607s5.106,6.562,13.709,5.67v-2.533S42.5,116.043,38.248,111.115Z" transform="translate(-26.888 -79.011)"/>
    <path id="Path_40" data-name="Path 40" class="cls-1" d="M5.143,74.925l14.335,1.793s-.3,2.09.746,2.986L6.785,85.677A17.138,17.138,0,0,1,5.143,74.925Z" transform="translate(-4.849 -53.572)"/>
    <path id="Path_41" data-name="Path 41" class="cls-1" d="M35.621,27.684s-3.285.221-7.167,3.993l5.525,5.265a6.53,6.53,0,0,1,3.732-2.092Z" transform="translate(-21.441 -20.366)"/>
    <path id="Path_42" data-name="Path 42" class="cls-1" d="M91.4,3.053A18.954,18.954,0,0,1,98.12,6.338L91.1,15.895l-2.837-1.531Z" transform="translate(-63.483 -3.053)"/>
    <g id="tastradesoft_logo" data-name="tastradesoft logo" transform="translate(25.336 35.517)">
      <g id="Group_5" data-name="Group 5">
        <path id="Path_43" data-name="Path 43" class="cls-1" d="M92.048,127.151h-.606v-1.394l-1.313-2.136h.651l.965,1.606.965-1.606h.652l-1.313,2.136v1.394Z" transform="translate(-90.129 -123.318)"/>
        <path id="Path_44" data-name="Path 44" class="cls-1" d="M103.4,128.689a1.471,1.471,0,0,1-2.02,0,1.4,1.4,0,0,1,0-1.965,1.471,1.471,0,0,1,2.02,0,1.4,1.4,0,0,1,0,1.965Zm-1.619-.348a.879.879,0,0,0,1.217,0,.957.957,0,0,0,0-1.268.879.879,0,0,0-1.217,0,.957.957,0,0,0,0,1.268Z" transform="translate(-97.753 -125.216)"/>
        <path id="Path_45" data-name="Path 45" class="cls-1" d="M114.8,127.914v-1.455h.566v2.687H114.8v-.49a1.019,1.019,0,0,1-.894.531,1,1,0,0,1-.735-.278,1.082,1.082,0,0,1-.28-.8v-1.647h.565v1.475q0,.742.616.742a.741.741,0,0,0,.51-.194A.724.724,0,0,0,114.8,127.914Z" transform="translate(-106.129 -125.313)"/>
        <path id="Path_46" data-name="Path 46" class="cls-1" d="M125.725,126.893a.751.751,0,0,0-.631.273,1.16,1.16,0,0,0-.212.732v1.152h-.566v-2.687h.566v.54a1.176,1.176,0,0,1,.371-.414.9.9,0,0,1,.5-.167l.005.571Z" transform="translate(-114.159 -125.216)"/>
        <path id="Path_47" data-name="Path 47" class="cls-1" d="M137.271,124.176v.97h1.566v.551h-1.566v1.455h-.6v-3.53h2.354l-.005.555Z" transform="translate(-122.847 -123.318)"/>
        <path id="Path_48" data-name="Path 48" class="cls-1" d="M146.878,123.211a.354.354,0,1,1,.253.106A.344.344,0,0,1,146.878,123.211Zm.53,3.222h-.566v-2.687h.566Z" transform="translate(-129.944 -122.6)"/>
        <path id="Path_49" data-name="Path 49" class="cls-1" d="M152.574,127.594v1.455h-.566v-2.687h.566v.49a1.055,1.055,0,0,1,1.629-.253,1.082,1.082,0,0,1,.28.8v1.647h-.566v-1.475q0-.742-.616-.742a.741.741,0,0,0-.51.194A.724.724,0,0,0,152.574,127.594Z" transform="translate(-133.624 -125.216)"/>
        <path id="Path_50" data-name="Path 50" class="cls-1" d="M163.418,124.918v1.364a.44.44,0,0,0,.1.305.358.358,0,0,0,.283.114.481.481,0,0,0,.349-.177l.232.4a.963.963,0,0,1-.659.268.847.847,0,0,1-.616-.25.9.9,0,0,1-.255-.674v-1.348h-.339v-.455h.339v-.843h.565v.843h.707v.455h-.707Z" transform="translate(-141.009 -123.317)"/>
        <path id="Path_51" data-name="Path 51" class="cls-1" d="M172.749,127.954h-2.106a.613.613,0,0,0,.267.472,1.04,1.04,0,0,0,1.333-.139l.323.354a1.5,1.5,0,0,1-1.131.449,1.346,1.346,0,0,1-.962-.376,1.328,1.328,0,0,1-.4-1.01,1.3,1.3,0,0,1,.4-1.007,1.354,1.354,0,0,1,.952-.374,1.38,1.38,0,0,1,.932.331,1.139,1.139,0,0,1,.384.911v.389Zm-2.106-.444h1.54a.646.646,0,0,0-.212-.52.776.776,0,0,0-.523-.182.9.9,0,0,0-.558.19A.611.611,0,0,0,170.643,127.51Z" transform="translate(-146.325 -125.217)"/>
        <path id="Path_52" data-name="Path 52" class="cls-1" d="M182.277,129.091a1.357,1.357,0,0,1-.965-.381,1.418,1.418,0,0,1,.018-2,1.467,1.467,0,0,1,1.028-.387,1.4,1.4,0,0,1,1.025.419l-.333.409a1.073,1.073,0,0,0-.7-.3.887.887,0,0,0-.613.235.779.779,0,0,0-.26.606.879.879,0,0,0,.892.886.986.986,0,0,0,.71-.343l.333.364A1.549,1.549,0,0,1,182.277,129.091Z" transform="translate(-153.939 -125.217)"/>
        <path id="Path_53" data-name="Path 53" class="cls-1" d="M192.2,125.193v1.455h-.566V122.9h.566v1.545a.9.9,0,0,1,.366-.389,1.042,1.042,0,0,1,.528-.141,1,1,0,0,1,.735.278,1.082,1.082,0,0,1,.28.8v1.647h-.566v-1.475q0-.742-.616-.742a.741.741,0,0,0-.51.194A.725.725,0,0,0,192.2,125.193Z" transform="translate(-161.478 -122.814)"/>
        <path id="Path_54" data-name="Path 54" class="cls-1" d="M210.61,123.928a1.168,1.168,0,0,1,.369.95,1.126,1.126,0,0,1-.376.939,1.847,1.847,0,0,1-1.154.3h-.626v1.035h-.6v-3.53h1.212A1.817,1.817,0,0,1,210.61,123.928Zm-.422,1.457a.782.782,0,0,0,.179-.556.576.576,0,0,0-.228-.518,1.309,1.309,0,0,0-.712-.152h-.606v1.414h.692A.923.923,0,0,0,210.188,125.385Z" transform="translate(-173.14 -123.317)"/>
        <path id="Path_55" data-name="Path 55" class="cls-1" d="M221.331,126.893a.751.751,0,0,0-.631.273,1.16,1.16,0,0,0-.212.732v1.152h-.566v-2.687h.566v.54a1.176,1.176,0,0,1,.371-.414.9.9,0,0,1,.5-.167l.005.571Z" transform="translate(-181.361 -125.216)"/>
        <path id="Path_56" data-name="Path 56" class="cls-1" d="M228.671,128.689a1.471,1.471,0,0,1-2.02,0,1.4,1.4,0,0,1,0-1.965,1.471,1.471,0,0,1,2.02,0,1.4,1.4,0,0,1,0,1.965Zm-1.619-.348a.879.879,0,0,0,1.217,0,.957.957,0,0,0,0-1.268.879.879,0,0,0-1.217,0,.957.957,0,0,0,0,1.268Z" transform="translate(-185.807 -125.216)"/>
        <path id="Path_57" data-name="Path 57" class="cls-1" d="M240.356,126.363v2.344a1.383,1.383,0,0,1-.387,1.068,1.407,1.407,0,0,1-.993.356,1.746,1.746,0,0,1-1.1-.379l.267-.429a1.314,1.314,0,0,0,.8.3.93.93,0,0,0,.637-.207.841.841,0,0,0,.235-.662v-.343a.958.958,0,0,1-.361.379,1,1,0,0,1-.528.142,1.141,1.141,0,0,1-.879-.374,1.43,1.43,0,0,1,0-1.859,1.137,1.137,0,0,1,.876-.374,1.038,1.038,0,0,1,.866.439v-.4Zm-2.1,1.24a.851.851,0,0,0,.2.571.688.688,0,0,0,.551.24.728.728,0,0,0,.561-.232.82.82,0,0,0,.215-.578.844.844,0,0,0-.217-.586.723.723,0,0,0-.561-.24.674.674,0,0,0-.548.247A.881.881,0,0,0,238.26,127.6Z" transform="translate(-193.861 -125.217)"/>
        <path id="Path_58" data-name="Path 58" class="cls-1" d="M251.132,126.893a.751.751,0,0,0-.631.273,1.16,1.16,0,0,0-.212.732v1.152h-.566v-2.687h.566v.54a1.176,1.176,0,0,1,.371-.414.9.9,0,0,1,.5-.167l.005.571Z" transform="translate(-202.309 -125.216)"/>
        <path id="Path_59" data-name="Path 59" class="cls-1" d="M258.426,129.05h-.515v-.359a1.106,1.106,0,0,1-.894.4,1.026,1.026,0,0,1-.695-.238.8.8,0,0,1-.275-.634.667.667,0,0,1,.293-.594,1.406,1.406,0,0,1,.793-.2h.733v-.1q0-.535-.6-.536a1.4,1.4,0,0,0-.778.273l-.253-.353a1.74,1.74,0,0,1,1.111-.389,1.2,1.2,0,0,1,.775.24.909.909,0,0,1,.3.755v1.733Zm-.566-1v-.227h-.636q-.611,0-.611.384a.342.342,0,0,0,.152.3.738.738,0,0,0,.422.1.765.765,0,0,0,.472-.152A.485.485,0,0,0,257.86,128.049Z" transform="translate(-206.754 -125.216)"/>
        <path id="Path_60" data-name="Path 60" class="cls-1" d="M267.611,127.594v1.455h-.566v-2.687h.566v.49a.9.9,0,0,1,.366-.389,1.042,1.042,0,0,1,.528-.141.854.854,0,0,1,.864.526,1.205,1.205,0,0,1,.995-.526,1,1,0,0,1,.735.278,1.082,1.082,0,0,1,.28.8v1.647h-.566v-1.475q0-.742-.616-.742a.747.747,0,0,0-.5.184.7.7,0,0,0-.225.538v1.5H268.9v-1.475a.931.931,0,0,0-.136-.563.505.505,0,0,0-.429-.179.741.741,0,0,0-.51.194A.725.725,0,0,0,267.611,127.594Z" transform="translate(-214.485 -125.216)"/>
        <path id="Path_61" data-name="Path 61" class="cls-1" d="M285.189,127.594v1.455h-.566v-2.687h.566v.49a.9.9,0,0,1,.366-.389,1.042,1.042,0,0,1,.528-.141.854.854,0,0,1,.864.526,1.205,1.205,0,0,1,.995-.526,1,1,0,0,1,.735.278,1.082,1.082,0,0,1,.28.8v1.647h-.566v-1.475q0-.742-.616-.742a.747.747,0,0,0-.5.184.7.7,0,0,0-.225.538v1.5h-.566v-1.475a.931.931,0,0,0-.136-.563.505.505,0,0,0-.429-.179.741.741,0,0,0-.51.194A.726.726,0,0,0,285.189,127.594Z" transform="translate(-226.84 -125.216)"/>
        <path id="Path_62" data-name="Path 62" class="cls-1" d="M302.069,123.211a.354.354,0,1,1,.253.106A.344.344,0,0,1,302.069,123.211Zm.53,3.222h-.566v-2.687h.566Z" transform="translate(-239.029 -122.6)"/>
        <path id="Path_63" data-name="Path 63" class="cls-1" d="M307.766,127.594v1.455H307.2v-2.687h.566v.49a1.055,1.055,0,0,1,1.629-.253,1.082,1.082,0,0,1,.28.8v1.647h-.566v-1.475q0-.742-.616-.742a.741.741,0,0,0-.51.194A.724.724,0,0,0,307.766,127.594Z" transform="translate(-242.71 -125.216)"/>
        <path id="Path_64" data-name="Path 64" class="cls-1" d="M320.612,126.363v2.344a1.383,1.383,0,0,1-.387,1.068,1.407,1.407,0,0,1-.993.356,1.746,1.746,0,0,1-1.1-.379l.267-.429a1.314,1.314,0,0,0,.8.3.93.93,0,0,0,.637-.207.841.841,0,0,0,.235-.662v-.343a.958.958,0,0,1-.361.379,1,1,0,0,1-.528.142,1.141,1.141,0,0,1-.879-.374,1.43,1.43,0,0,1,0-1.859,1.137,1.137,0,0,1,.876-.374,1.038,1.038,0,0,1,.866.439v-.4Zm-2.1,1.24a.851.851,0,0,0,.2.571.688.688,0,0,0,.551.24.728.728,0,0,0,.561-.232.82.82,0,0,0,.215-.578.843.843,0,0,0-.217-.586.723.723,0,0,0-.561-.24.675.675,0,0,0-.548.247A.881.881,0,0,0,318.516,127.6Z" transform="translate(-250.274 -125.217)"/>
        <path id="Path_65" data-name="Path 65" class="cls-1" d="M335.636,123.881a.783.783,0,0,0-.427.106.355.355,0,0,0-.167.321.373.373,0,0,0,.167.328,2.534,2.534,0,0,0,.71.245,1.952,1.952,0,0,1,.818.368.873.873,0,0,1,.275.7.925.925,0,0,1-.349.75,1.389,1.389,0,0,1-.914.288,2.148,2.148,0,0,1-1.47-.571l.374-.45a1.681,1.681,0,0,0,1.111.465.761.761,0,0,0,.457-.124.388.388,0,0,0,.169-.328.369.369,0,0,0-.159-.318,1.672,1.672,0,0,0-.548-.207,4.916,4.916,0,0,1-.591-.172,1.337,1.337,0,0,1-.359-.2.853.853,0,0,1-.313-.727.885.885,0,0,1,.356-.755,1.433,1.433,0,0,1,.881-.265,2.116,2.116,0,0,1,.672.111,1.762,1.762,0,0,1,.576.313l-.318.45a1.208,1.208,0,0,0-.424-.232A1.654,1.654,0,0,0,335.636,123.881Z" transform="translate(-261.744 -123.113)"/>
        <path id="Path_66" data-name="Path 66" class="cls-1" d="M347.857,128.689a1.471,1.471,0,0,1-2.02,0,1.4,1.4,0,0,1,0-1.965,1.471,1.471,0,0,1,2.02,0,1.4,1.4,0,0,1,0,1.965Zm-1.619-.348a.879.879,0,0,0,1.217,0,.957.957,0,0,0,0-1.268.879.879,0,0,0-1.217,0,.957.957,0,0,0,0,1.268Z" transform="translate(-269.584 -125.216)"/>
        <path id="Path_67" data-name="Path 67" class="cls-1" d="M358.016,126.637h-.566v-3.748h.566Z" transform="translate(-278.031 -122.803)"/>
        <path id="Path_68" data-name="Path 68" class="cls-1" d="M364.255,127.914v-1.455h.566v2.687h-.566v-.49a1.019,1.019,0,0,1-.894.531,1,1,0,0,1-.735-.278,1.082,1.082,0,0,1-.28-.8v-1.647h.565v1.475q0,.742.616.742a.741.741,0,0,0,.51-.194A.724.724,0,0,0,364.255,127.914Z" transform="translate(-281.472 -125.313)"/>
        <path id="Path_69" data-name="Path 69" class="cls-1" d="M373.976,124.918v1.364a.44.44,0,0,0,.1.305.358.358,0,0,0,.282.114.481.481,0,0,0,.349-.177l.232.4a.963.963,0,0,1-.659.268.847.847,0,0,1-.616-.25.9.9,0,0,1-.255-.674v-1.348h-.339v-.455h.339v-.843h.565v.843h.707v.455h-.707Z" transform="translate(-289.012 -123.317)"/>
        <path id="Path_70" data-name="Path 70" class="cls-1" d="M381.084,123.211a.354.354,0,1,1,.253.106A.344.344,0,0,1,381.084,123.211Zm.53,3.222h-.566v-2.687h.566Z" transform="translate(-294.569 -122.6)"/>
        <path id="Path_71" data-name="Path 71" class="cls-1" d="M388.044,128.689a1.471,1.471,0,0,1-2.02,0,1.4,1.4,0,0,1,0-1.965,1.471,1.471,0,0,1,2.02,0,1.4,1.4,0,0,1,0,1.965Zm-1.619-.348a.879.879,0,0,0,1.217,0,.957.957,0,0,0,0-1.268.879.879,0,0,0-1.217,0,.957.957,0,0,0,0,1.268Z" transform="translate(-297.832 -125.216)"/>
        <path id="Path_72" data-name="Path 72" class="cls-1" d="M398.2,127.594v1.455h-.566v-2.687h.566v.49a1.055,1.055,0,0,1,1.629-.253,1.082,1.082,0,0,1,.28.8v1.647h-.566v-1.475q0-.742-.616-.742a.741.741,0,0,0-.51.194A.724.724,0,0,0,398.2,127.594Z" transform="translate(-306.279 -125.216)"/>
      </g>
    </g>
  </g>
</svg>
