<svg xmlns="http://www.w3.org/2000/svg" viewBox="0 0 14.616 15">
  <defs>
    <style>
      .cls-1 {
        fill: #eeeff0;
      }
    </style>
  </defs>
  <g id="google-icon" transform="translate(-0.11)">
    <path id="Path_2" data-name="Path 2" class="cls-1" d="M7.718,6.825v2.05h4.9A4.346,4.346,0,0,1,11.5,11.458a5.017,5.017,0,0,1-3.783,1.5,5.378,5.378,0,0,1-5.375-5.45,5.378,5.378,0,0,1,5.375-5.45A5.21,5.21,0,0,1,11.41,3.525l1.442-1.442A7.078,7.078,0,0,0,7.718,0,7.6,7.6,0,0,0,.11,7.5,7.6,7.6,0,0,0,7.718,15a6.874,6.874,0,0,0,5.233-2.1,6.784,6.784,0,0,0,1.775-4.792,6.587,6.587,0,0,0-.108-1.283Z" transform="translate(0)"/>
  </g>
</svg>
