<svg xmlns="http://www.w3.org/2000/svg" viewBox="0 0 15 15">
  <defs>
    <style>
      .cls-1 {
        fill: #eeeff0;
      }
    </style>
  </defs>
  <path id="instagram-icon" class="cls-1" d="M7.167,3A4.171,4.171,0,0,0,3,7.167v6.667A4.171,4.171,0,0,0,7.167,18h6.667A4.171,4.171,0,0,0,18,13.833V7.167A4.171,4.171,0,0,0,13.833,3Zm0,1.667h6.667a2.5,2.5,0,0,1,2.5,2.5v6.667a2.5,2.5,0,0,1-2.5,2.5H7.167a2.5,2.5,0,0,1-2.5-2.5V7.167A2.5,2.5,0,0,1,7.167,4.667Zm7.5.833a.833.833,0,1,0,.833.833A.833.833,0,0,0,14.667,5.5ZM10.5,6.333A4.167,4.167,0,1,0,14.667,10.5,4.171,4.171,0,0,0,10.5,6.333ZM10.5,8A2.5,2.5,0,1,1,8,10.5,2.5,2.5,0,0,1,10.5,8Z" transform="translate(-3 -3)"/>
</svg>
