<svg xmlns="http://www.w3.org/2000/svg" viewBox="0 0 15 15">
  <defs>
    <style>
      .cls-1 {
        fill: #eeeff0;
      }
    </style>
  </defs>
  <path id="linkedin-icon" class="cls-1" d="M17.214,4H5.786A1.786,1.786,0,0,0,4,5.786V17.214A1.786,1.786,0,0,0,5.786,19H17.214A1.786,1.786,0,0,0,19,17.214V5.786A1.786,1.786,0,0,0,17.214,4ZM8.643,9.714V16.5H6.5V9.714ZM6.5,7.739a.952.952,0,0,1,1.071-.882.966.966,0,0,1,1.071.882.95.95,0,0,1-1.071.9A.967.967,0,0,1,6.5,7.739Zm10,8.761H14.357V12.929a1.284,1.284,0,0,0-1.25-1.443h-.029c-.864,0-1.221.736-1.221,1.443V16.5H9.714V9.714h2.143v.914a2.675,2.675,0,0,1,2.075-.914c1.418,0,2.568.975,2.568,2.95Z" transform="translate(-4 -4)"/>
</svg>
