<svg xmlns="http://www.w3.org/2000/svg" viewBox="0 0 18.458 15">
  <defs>
    <style>
      .cls-1 {
        fill: #eeeff0;
      }
    </style>
  </defs>
  <g id="twitter-icon" transform="translate(0.059 -5.617)">
    <path id="Path_77" data-name="Path 77" class="cls-1" d="M18.4,7.392a7.575,7.575,0,0,1-2.177.6,3.8,3.8,0,0,0,1.666-2.095,7.6,7.6,0,0,1-2.405.918,3.789,3.789,0,0,0-6.452,3.454A10.753,10.753,0,0,1,1.226,6.309,3.8,3.8,0,0,0,2.4,11.367a3.784,3.784,0,0,1-1.716-.475v.047a3.792,3.792,0,0,0,3.037,3.714,3.79,3.79,0,0,1-1,.132,3.648,3.648,0,0,1-.714-.069,3.8,3.8,0,0,0,3.537,2.631,7.591,7.591,0,0,1-4.7,1.62,7.451,7.451,0,0,1-.9-.053,10.7,10.7,0,0,0,5.8,1.7A10.7,10.7,0,0,0,16.521,9.844c0-.164,0-.329-.01-.491A7.7,7.7,0,0,0,18.4,7.392Z" transform="translate(0 0)"/>
  </g>
</svg>
