<svg xmlns="http://www.w3.org/2000/svg" viewBox="0 0 112.581 14.615">
  <defs>
    <style>
      .cls-1 {
        fill: #ff4264;
      }
    </style>
  </defs>
  <g id="betterment-logo" transform="translate(0 0)">
    <path id="Path_14" data-name="Path 14" class="cls-1" d="M449.7,10.792c0,2.721,1.431,4.223,4.152,4.223a6.525,6.525,0,0,0,2.932-.633l-.821-2.581a3.05,3.05,0,0,1-1.431.375c-1.032,0-1.548-.61-1.548-1.736V6.711H456.2V4.083h-3.237V.4L449.7,1.479Z" transform="translate(-344.204 -0.4)"/>
    <path id="Path_15" data-name="Path 15" class="cls-1" d="M347.131,19.057a2.346,2.346,0,0,1,2.3-1.736,2.173,2.173,0,0,1,2.182,1.736ZM354.9,20.23a5.382,5.382,0,0,0-5.466-5.63,5.516,5.516,0,0,0-5.63,5.63,5.638,5.638,0,0,0,10.909,1.994h-3.167a2.44,2.44,0,0,1-2.135.985,2.385,2.385,0,0,1-2.346-2.111H354.9V20.23Z" transform="translate(-263.147 -11.269)"/>
    <path id="Path_16" data-name="Path 16" class="cls-1" d="M404.49,25.624h3.237V19.1a4.659,4.659,0,0,0-1.126-3.214,3.8,3.8,0,0,0-2.909-1.2,4.457,4.457,0,0,0-3.308,1.408V15H397.1V25.624h3.284V20.7c0-1.947.8-3,2.229-3a1.893,1.893,0,0,1,1.877,2.111Z" transform="translate(-303.944 -11.337)"/>
    <path id="Path_17" data-name="Path 17" class="cls-1" d="M277.587,25.709h3.237V19.3c0-2.768-1.6-4.5-3.965-4.5a4.488,4.488,0,0,0-3.753,1.83,3.787,3.787,0,0,0-3.4-1.83,3.912,3.912,0,0,0-3.12,1.337V15.082H263.3V25.709h3.284V20.5c0-1.736.7-2.721,2.018-2.721,1.22,0,1.83.7,1.83,1.994v5.935h3.284V20.5c0-1.736.751-2.721,2.111-2.721a1.845,1.845,0,0,1,1.759,2.064Z" transform="translate(-201.532 -11.422)"/>
    <path id="Path_18" data-name="Path 18" class="cls-1" d="M225.523,26.168h3.261V22.813c0-2.956,1.337-4.152,3.472-4.152a5.011,5.011,0,0,1,.891.07V15.494a2.434,2.434,0,0,0-.751-.094,4,4,0,0,0-3.613,2.276V15.564H225.5v10.6Z" transform="translate(-172.6 -11.881)"/>
    <path id="Path_19" data-name="Path 19" class="cls-1" d="M175.531,19.057a2.346,2.346,0,0,1,2.3-1.736,2.138,2.138,0,0,1,2.182,1.736Zm7.788,1.173a5.428,5.428,0,0,0-5.489-5.63,5.516,5.516,0,0,0-5.63,5.63,5.638,5.638,0,0,0,10.909,1.994h-3.167a2.424,2.424,0,0,1-2.111.985,2.368,2.368,0,0,1-2.346-2.111h7.835V20.23Z" transform="translate(-131.803 -11.269)"/>
    <path id="Path_20" data-name="Path 20" class="cls-1" d="M110.661,6.711h4.551v4.082c0,2.721,1.408,4.223,4.152,4.223a6.525,6.525,0,0,0,2.932-.633l-.845-2.581a3.05,3.05,0,0,1-1.408.375c-1.056,0-1.572-.61-1.572-1.736V6.711h3.214V4.083h-3.214V.4l-3.261,1.079V4.06h-4.551V.447L107.4,1.479v9.313c0,2.721,1.408,4.223,4.152,4.223a6.525,6.525,0,0,0,2.932-.633L113.64,11.8a3.05,3.05,0,0,1-1.408.375c-1.056,0-1.572-.61-1.572-1.736Z" transform="translate(-82.205 -0.4)"/>
    <path id="Path_21" data-name="Path 21" class="cls-1" d="M57.631,19.057a2.346,2.346,0,0,1,2.3-1.736,2.155,2.155,0,0,1,2.182,1.736ZM65.4,20.23A5.382,5.382,0,0,0,59.93,14.6a5.516,5.516,0,0,0-5.63,5.63,5.638,5.638,0,0,0,10.909,1.994H62.042a2.44,2.44,0,0,1-2.135.985A2.385,2.385,0,0,1,57.561,21.1H65.4V20.23Z" transform="translate(-41.562 -11.269)"/>
    <path id="Path_22" data-name="Path 22" class="cls-1" d="M6.639,12.913H3.284V10.051H6.639a1.452,1.452,0,0,1,1.548,1.454,1.421,1.421,0,0,1-1.548,1.408ZM3.284,4.492H6.217A1.394,1.394,0,0,1,7.765,5.9,1.455,1.455,0,0,1,6.217,7.377H3.284ZM9.548,8.339a3.5,3.5,0,0,0,1.713-3.05C11.26,3.6,9.782,1.7,6.85,1.7H0V15.705H6.85c3.753,0,4.786-2.346,4.786-3.941A3.7,3.7,0,0,0,9.548,8.339Z" transform="translate(0 -1.395)"/>
  </g>
</svg>
