<svg id="google-logo" xmlns="http://www.w3.org/2000/svg" viewBox="0 0 73.128 22.999">
  <defs>
    <style>
      .cls-1 {
        fill: #ff4264;
      }
    </style>
  </defs>
  <path id="Path_2" data-name="Path 2" class="cls-1" d="M9.364,8.3v2.493h5.96a5.286,5.286,0,0,1-1.358,3.142,6.1,6.1,0,0,1-4.6,1.824A6.541,6.541,0,0,1,2.826,9.132,6.541,6.541,0,0,1,9.364,2.5a6.337,6.337,0,0,1,4.49,1.784l1.753-1.753A8.609,8.609,0,0,0,9.364,0,9.249,9.249,0,0,0,.11,9.122a9.249,9.249,0,0,0,9.254,9.122,8.36,8.36,0,0,0,6.365-2.554,8.251,8.251,0,0,0,2.159-5.828A8.011,8.011,0,0,0,17.756,8.3Z" transform="translate(-0.11)"/>
  <path id="Path_3" data-name="Path 3" class="cls-1" d="M25.079,6.19a5.8,5.8,0,0,0-5.909,5.889,5.909,5.909,0,0,0,11.818,0A5.8,5.8,0,0,0,25.079,6.19Zm0,9.456a3.406,3.406,0,0,1-3.324-3.568,3.333,3.333,0,1,1,6.649,0A3.406,3.406,0,0,1,25.079,15.646Z" transform="translate(-0.15 -0.081)"/>
  <path id="Path_4" data-name="Path 4" class="cls-1" d="M53.7,7.508H53.6A4.082,4.082,0,0,0,50.5,6.19,5.725,5.725,0,0,0,45,12.079a5.738,5.738,0,0,0,5.5,5.889,4.021,4.021,0,0,0,3.1-1.338H53.7v.821c0,2.25-1.206,3.456-3.142,3.456a3.266,3.266,0,0,1-2.97-2.1l-2.25.932a5.609,5.609,0,0,0,5.22,3.476c3.03,0,5.595-1.784,5.595-6.132V6.494H53.7Zm-2.97,8.139a3.3,3.3,0,0,1-3.142-3.568,3.279,3.279,0,0,1,3.142-3.568A3.316,3.316,0,0,1,53.868,12.1,3.279,3.279,0,0,1,50.726,15.646Z" transform="translate(-0.198 -0.219)"/>
  <path id="Path_5" data-name="Path 5" class="cls-1" d="M38.079,6.19a5.8,5.8,0,0,0-5.909,5.889,5.909,5.909,0,0,0,11.818,0A5.8,5.8,0,0,0,38.079,6.19Zm0,9.456a3.406,3.406,0,0,1-3.324-3.568,3.333,3.333,0,1,1,6.649,0A3.406,3.406,0,0,1,38.079,15.646Z" transform="translate(-0.178 -0.081)"/>
  <path id="Path_6" data-name="Path 6" class="cls-1" d="M58,.24h2.544V18.048H58Z" transform="translate(-0.115 0.003)"/>
  <path id="Path_7" data-name="Path 7" class="cls-1" d="M68.338,15.646a3,3,0,0,1-2.858-1.784l7.875-3.253-.264-.669a5.468,5.468,0,0,0-5.037-3.75A5.6,5.6,0,0,0,62.5,12.079a5.756,5.756,0,0,0,5.838,5.889,5.875,5.875,0,0,0,4.905-2.6l-2.007-1.338a3.372,3.372,0,0,1-2.9,1.622ZM68.155,8.4a2.328,2.328,0,0,1,2.23,1.3l-5.321,2.2A3.2,3.2,0,0,1,68.155,8.4Z" transform="translate(-0.227 -0.081)"/>
</svg>
