<svg xmlns="http://www.w3.org/2000/svg" viewBox="0 0 67.495 15.427">
  <defs>
    <style>
      .cls-1 {
        fill: #ff4264;
      }
    </style>
  </defs>
  <path id="ideo-logo" class="cls-1" d="M24.879.619H17.951V14.808H24.76c4.4-.048,7.428-3.143,7.428-7.119,0-3.928-2.976-6.952-7.309-7.071ZM24.76,12.38H20.5V3.071h4.309a4.5,4.5,0,0,1,4.619,4.666A4.5,4.5,0,0,1,24.76,12.38ZM14.189,3.119V.619H0v2.5H5.833v9.214H0v2.5H14.189v-2.5H8.38V3.119Zm35.426,0V.619H35.283V14.832H49.615v-2.5H37.854V8.976H47.02v-2.5H37.854V3.119ZM59.686,0a7.763,7.763,0,0,0-7.809,7.714,7.81,7.81,0,0,0,15.618,0A7.763,7.763,0,0,0,59.686,0Zm0,12.785a5.1,5.1,0,0,1-5.119-5.047,5.119,5.119,0,0,1,10.237,0,5.1,5.1,0,0,1-5.119,5.047Z"/>
</svg>
