<svg xmlns="http://www.w3.org/2000/svg" viewBox="0 0 86.871 21.54">
  <defs>
    <style>
      .cls-1 {
        fill: #ff4264;
      }
    </style>
  </defs>
  <path id="mailchimp.logo" class="cls-1" d="M42.541,25.121h0Zm59.112,5.359h.03a2.907,2.907,0,0,0,3.046-3,3.543,3.543,0,0,0-.711-2.252,2.5,2.5,0,0,0-1.991-.944h-.016c-1.094,0-2.111.83-3.107,2.539l-.079.136-.051-.149c-.252-.732-.476-1.342-.61-1.707-.094-.255-.135-.369-.145-.406a.4.4,0,0,0-.413-.3.737.737,0,0,0-.391.125.456.456,0,0,0-.223.311l-.006.02c-1,3.11-1.819,4.619-2.516,4.619a.308.308,0,0,1-.24-.1c-.182-.2-.138-.681-.076-1.345a12.336,12.336,0,0,0,.076-1.626,1.642,1.642,0,0,0-1.648-1.81c-1.259,0-2.075,1.341-2.451,2.14l-.112.238-.025-.263c-.094-.989-.426-2.171-1.474-2.178-1.223,0-2.154,1.435-2.722,2.639l-.152.323.015-.356c.067-1.606.123-2.554.165-2.817a.682.682,0,0,0-.067-.542.548.548,0,0,0-.462-.116c-.391.025-.591.263-.893,1.061-.495,1.311-1.754,4.362-2.759,4.362a.6.6,0,0,1-.473-.2c-.422-.483-.253-1.79-.02-3.6l.018-.137c.11-.856-.078-1.039-.543-1.124a.8.8,0,0,0-.141-.014c-.371,0-.545.356-.892,1.344-.617,1.759-1.411,3.608-2.339,3.608a.648.648,0,0,1-.1-.008c-.492-.084-.481-.813-.467-1.737a10,10,0,0,0-.062-1.578c-.139-.918-.679-1.491-1.412-1.5-1.461,0-2.447,1.871-2.905,2.987l-.1.252-.035-.271q-.135-1.074-.177-2.157v-.027l.017-.021c2.735-3.443,3.962-5.927,3.979-8.056.011-1.36-.617-2.177-1.678-2.185-.776,0-2.621.646-3.262,6.634q-.18,1.686-.194,3.383v.022l-.013.018c-1.251,1.811-3.922,4.926-6.536,4.926-2.362,0-4.247-1.911-4.247-5.285,0-4.523,3.2-7.3,5.61-7.3h.02a2.014,2.014,0,0,1,1.3.423,1.43,1.43,0,0,1,.512,1.147,2.093,2.093,0,0,1-.4,1.255c-.05.08-.1.159-.147.243a.321.321,0,0,0-.027.313.487.487,0,0,0,.422.177,1.98,1.98,0,0,0,1.45-2.081,2.8,2.8,0,0,0-3.06-2.658c-2.977,0-6.987,3.271-6.987,8.571,0,3.749,2.351,6.341,5.535,6.341,2.26,0,4.5-1.618,6.475-4.321l.121-.164.009.2c.042.989.114,1.769.166,2.338.034.366.058.63.058.776a1.064,1.064,0,0,0,.16.678.661.661,0,0,0,.55.2c.445,0,.534-.3.71-1.051l.051-.213c.219-.906,1.027-3.864,2.243-3.864a.611.611,0,0,1,.461.176c.268.285.239.869.205,1.546a8.626,8.626,0,0,0,0,1.284C75.6,29.536,76.093,30.1,77,30.1c.929,0,1.9-1,2.41-1.93L79.5,28l.038.2c.094.5.517,2.131,1.838,2.131,1.2,0,2.226-1.262,3.352-3.858l.148-.339-.009.37c-.024.984-.077,2.185-.078,3.114,0,.719.072.993.4.993l.075,0c.319,0,.535-.19.643-.566.848-2.955,1.58-4.331,2.306-4.331.711.005.777,1.305.834,3.6l0,.161c.017.8.046,1.159.545,1.162.379,0,.473-.3.669-1.03.037-.14.078-.293.126-.458.685-2.375,1.252-3.344,1.958-3.344.6,0,.638.628.65.833a9.062,9.062,0,0,1-.065,1.342,9.2,9.2,0,0,0-.067,1.235,1.341,1.341,0,0,0,1.432,1.451c1.151,0,2.189-1.346,3.1-4l.063-.185.072.182c.165.417.38.982.579,1.655l.008.026-.011.024a16.1,16.1,0,0,0-1.511,5.3c-.012,1.533.682,2.529,1.767,2.538h.019c.59,0,1.967-.237,1.993-2.431A15.128,15.128,0,0,0,99.754,30l-.049-.184.158.106a3.294,3.294,0,0,0,1.79.563ZM72,23.041c.025-.55.071-1.085.137-1.591.426-3.262,1.315-5.539,2.162-5.539h0c.4,0,.606.309.6.908-.012,1.473-.945,3.581-2.773,6.266l-.143.21L72,23.041ZM99.022,34.767a.662.662,0,0,1-.558.271.723.723,0,0,1-.611-.281c-.387-.517-.278-1.732.353-3.937.076-.264.157-.528.244-.788l.073-.22.064.223C99.323,32.581,99.469,34.172,99.022,34.767Zm.229-6.521-.013-.024-.027-.085.012-.025c.838-1.728,1.8-2.718,2.635-2.718h.009c.944.007,1.6.857,1.587,2.065a1.9,1.9,0,0,1-.659,1.518,1.961,1.961,0,0,1-1.238.444,3.032,3.032,0,0,1-2.307-1.175Zm2.607-2.779h0ZM45.781,30.2c1.294-.1,2.321-1.863,2.7-2.616l.1-.194.037.214c.183,1.058.758,2.835,2.558,2.849h.015a3.873,3.873,0,0,0,2.554-1.377l.065-.066.048.079a2.584,2.584,0,0,0,2.265,1.5A2.146,2.146,0,0,0,58.222,29a.523.523,0,0,0-.115-.408.266.266,0,0,0-.4-.025l-.058.055a2.563,2.563,0,0,1-1.439.84c-.731.036-1.272-.4-1.621-1.3l-.014-.038.025-.032c2.01-2.629,3.421-6.641,3.282-9.332-.064-1.245-.426-2.73-1.787-2.73l-.1,0a2.01,2.01,0,0,0-1.408.738c-1.262,1.412-1.922,4.887-1.683,8.854a8.9,8.9,0,0,0,.425,2.289l.013.039-.026.031a3.185,3.185,0,0,1-2.073,1.352c-1.421,0-1.373-2.383-1.261-4.358.024-.426.06-.7-.066-.852a.565.565,0,0,0-.461-.167h-.026c-.506,0-.612.1-.87.854-.538,1.559-1.6,4.176-2.67,4.176a.821.821,0,0,1-.677-.3c-.518-.662-.125-2.312.191-3.639.057-.238.111-.467.158-.679a.816.816,0,0,0-.063-.683.716.716,0,0,0-.628-.171c-.458.037-.75.228-.892,1.1l-.028.181-.106-.129a1.494,1.494,0,0,0-1.313-.647q-.095,0-.2.008a3.568,3.568,0,0,0-2.294,1.4,4.7,4.7,0,0,0-1.01,3.341c.005.064.014.126.024.188l.005.034-.023.026a1.908,1.908,0,0,1-1.361.738c-.7-.005-1.1-.526-1.1-1.393,0-1.459.989-5.858.989-7.451,0-1.695-.755-2.617-2.067-2.627h-.02c-1.915,0-3.407,2.173-4.835,6.643q-.2.644-.4,1.291l-.2.672.059-.7q.194-2.248.271-4.5c.071-2.16-.221-3.551-.893-4.25a1.943,1.943,0,0,0-1.467-.568H28c-2.343,0-3.466,3.952-4.283,6.74-.247.842-.733,2.741-1.057,4.039l.192-.313c.144-1.634.562-5.729.534-7.95-.03-2.383-.823-3.451-2.573-3.464h-.022a2.709,2.709,0,0,0-1.963.854,3.406,3.406,0,0,0-.968,2.329c.013.48.307.907.531.907.145,0,.226-.194.261-.31.542-1.79,1.242-2.66,2.141-2.66a1.112,1.112,0,0,1,.858.336c.7.754.575,2.789.343,6.484-.075,1.191-.159,2.54-.231,4.074q-.019.38-.044.759c-.068,1.066-.123,1.908.282,1.97a.855.855,0,0,0,1.044-.652c.26-.772.842-2.884,1.97-6.741,1.082-3.7,1.9-5.049,2.945-5.049,1.208,0,1.3,2.074,1.077,6.451-.047.928-.11,1.979-.159,3.122-.007.161-.014.317-.022.467-.047.947-.083,1.694.187,1.98a.46.46,0,0,0,.351.134c.524,0,.681-.459.942-1.22.046-.134.095-.278.149-.428,1.794-4.95,3.121-9.244,4.9-9.244.534,0,.95.434.95,1.28,0,1.953-.955,5.727-.955,7.64a2.638,2.638,0,0,0,.57,1.733,2,2,0,0,0,1.548.686h.014a2.814,2.814,0,0,0,1.845-.86l.059-.053.047.064a2.025,2.025,0,0,0,1.8.8,3.053,3.053,0,0,0,2.381-2l.068-.182.067.182a1.912,1.912,0,0,0,2,1.424Zm10.2-12.933H56a.4.4,0,0,1,.33.189c.439.594.446,2.762-.31,5.23a17.6,17.6,0,0,1-1.679,3.852l-.106.177-.027-.2c-.078-.6-.117-1.218-.144-1.746-.193-3.729.935-7.444,1.918-7.5ZM43.7,25.978c-.387,1.558-1.13,3.44-2.469,3.547l-.109,0c-.556,0-.867-.364-.926-1.081a3.723,3.723,0,0,1,.986-2.679,1.94,1.94,0,0,1,1.36-.721h.009a1.336,1.336,0,0,1,1.146.883l.01.022-.006.024Zm6.211-5.713a.875.875,0,1,0-.013,1.75l.007.072v-.072a.875.875,0,1,0,.006-1.75Zm31.081,0a.875.875,0,1,0-.013,1.75l.007.072v-.072a.875.875,0,1,0,.006-1.75Z" transform="translate(-17.858 -14.666)"/>
</svg>
