<svg xmlns="http://www.w3.org/2000/svg" viewBox="0 0 88.003 11.615">
  <defs>
    <style>
      .cls-1 {
        fill: #ff4264;
      }
    </style>
  </defs>
  <g id="sequoia-logo" transform="translate(0 0)">
    <g id="Sequoia-1b-Home" transform="translate(0 0)">
      <g id="Nav" transform="translate(0 0)">
        <g id="NAV-2" data-name="NAV" transform="translate(0 0)">
          <g id="Group">
            <g id="Imported-Layers">
              <path id="Fill-1" class="cls-1" d="M80.858,42.2l-1.07-1.956a8.286,8.286,0,0,0,.507-3.733c0-1.956,0-3.378-1.07-4.563A3.685,3.685,0,0,0,76.3,30.7a3.884,3.884,0,0,0-2.928,1.244c-1.07,1.126-1.07,2.548-1.07,4.563,0,1.956-.056,3.378,1.07,4.563A3.765,3.765,0,0,0,76.3,42.315a4.169,4.169,0,0,0,.9-.119ZM74.89,39.708c-.394-.474-.507-1.007-.507-3.2s.113-2.726.507-3.2a1.837,1.837,0,0,1,2.7,0c.394.474.507,1.007.507,3.2s-.113,2.726-.507,3.2a1.837,1.837,0,0,1-2.7,0Z" transform="translate(-50.069 -30.7)"/>
              <path id="Fill-2" class="cls-1" d="M131.4,30.9h2.083V42.29H131.4Z" transform="translate(-74.199 -30.787)"/>
              <path id="Fill-3" class="cls-1" d="M38.941,42.359A4.952,4.952,0,0,1,35,40.877l1.351-1.423a3.459,3.459,0,0,0,2.59.948c1.239,0,1.914-.474,1.914-1.423a1.289,1.289,0,0,0-.338-.948,1.649,1.649,0,0,0-.957-.415l-1.295-.178a3.494,3.494,0,0,1-2.083-.948,3.186,3.186,0,0,1-.788-2.252c0-2.015,1.408-3.438,3.772-3.438a4.462,4.462,0,0,1,3.491,1.3l-1.351,1.363a2.8,2.8,0,0,0-2.2-.771c-1.126,0-1.689.652-1.689,1.423a1.2,1.2,0,0,0,.338.83,2.075,2.075,0,0,0,1.013.474l1.295.178a3.177,3.177,0,0,1,2.083.889A3.417,3.417,0,0,1,43,38.921c0,2.193-1.8,3.438-4.054,3.438" transform="translate(-35 -30.744)"/>
              <path id="Fill-4" class="cls-1" d="M54.6,42.29V30.9h7.151v1.958H56.74v2.669h4.279v2.017H56.74v2.788h5.011V42.29H54.6" transform="translate(-43.564 -30.787)"/>
              <path id="Fill-5" class="cls-1" d="M96.1,42.4a3.9,3.9,0,0,1-4-4.032V30.9h2.14v7.411a1.869,1.869,0,1,0,3.716,0V30.9h2.083v7.471A3.852,3.852,0,0,1,96.1,42.4" transform="translate(-58.085 -30.787)"/>
              <path id="Fill-6" class="cls-1" d="M118.625,41.071a3.684,3.684,0,0,1-2.928,1.244,3.884,3.884,0,0,1-2.928-1.244c-1.07-1.126-1.07-2.548-1.07-4.563,0-1.956-.056-3.378,1.07-4.563A3.685,3.685,0,0,1,115.7,30.7a3.975,3.975,0,0,1,2.928,1.244c1.07,1.126,1.07,2.548,1.07,4.563,0,1.956,0,3.378-1.07,4.563m-1.577-7.763a1.837,1.837,0,0,0-2.7,0c-.394.474-.507,1.007-.507,3.2s.113,2.726.507,3.2a1.837,1.837,0,0,0,2.7,0c.394-.474.507-1.007.507-3.2s-.113-2.726-.507-3.2" transform="translate(-66.006 -30.7)"/>
              <path id="Fill-7" class="cls-1" d="M147.12,42.29l-.619-2.017h-3.829L142,42.29h-2.2l3.941-11.39h1.633l3.941,11.39Zm-2.534-8.068-1.351,4.153h2.7l-1.351-4.153Z" transform="translate(-77.296 -30.787)"/>
              <path id="Fill-8" class="cls-1" d="M178.7,30.9h2.7v2.7h-2.7Z" transform="translate(-93.399 -30.787)"/>
              <path id="Fill-9" class="cls-1" d="M165.651,39.9v-9H164.3V41.333l1.351-1.431" transform="translate(-87.107 -30.787)"/>
              <path id="Fill-10" class="cls-1" d="M167.351,47.7,166,49.051h9.853V47.7h-8.5" transform="translate(-87.85 -37.549)"/>
              <path id="Fill-11" class="cls-1" d="M170.451,36.7V30.9H169.1v7.15l1.351-1.351" transform="translate(-89.205 -30.787)"/>
              <path id="Fill-12" class="cls-1" d="M172.151,42.9,170.8,44.251h7.151V42.9h-5.8" transform="translate(-89.947 -35.62)"/>
              <path id="Fill-13" class="cls-1" d="M175.251,34V30.9H173.9v4.448L175.251,34" transform="translate(-91.302 -30.787)"/>
              <path id="Fill-14" class="cls-1" d="M176.951,38.1,175.6,39.451h4.448V38.1h-3.1" transform="translate(-92.045 -33.684)"/>
            </g>
          </g>
        </g>
      </g>
    </g>
  </g>
</svg>
