<svg xmlns="http://www.w3.org/2000/svg" viewBox="0 0 68.495 21.999">
  <defs>
    <style>
      .cls-1 {
        fill: #ff4264;
      }
    </style>
  </defs>
  <g id="swellbottle-logo" transform="translate(0 0)">
    <path id="Path_11" data-name="Path 11" class="cls-1" d="M64.324,2.336a2.647,2.647,0,1,0-4.133,2.437.939.939,0,0,1,.4.758.86.86,0,0,1-.162.523c-.469.7-.343,1.1.235,1.1,2.274.018,3.881-2.563,3.664-4.819Zm-2.04.523A1.011,1.011,0,1,1,63.3,1.849,1.009,1.009,0,0,1,62.285,2.86Z" transform="translate(-47.347 0.056)"/>
    <path id="Path_12" data-name="Path 12" class="cls-1" d="M30.2,22.766l-2.888-8.788H23.6l1.336,3.673-1.651,5.115-2.888-8.788H16.681L21.888,28.2h2.771l2.1-5.608L28.8,28.2h2.771l5.187-14.218H33.049Zm32.854,1.106V7.62H59.478v16.47a3.908,3.908,0,0,0,4.185,4.127h2.044V25.156H64.331c-.9,0-1.277-.434-1.277-1.284Zm-7.919,0V7.62H51.559v16.47a3.908,3.908,0,0,0,4.185,4.127h2.044V25.156H56.412C55.489,25.156,55.135,24.721,55.135,23.872ZM6.031,15.2c-1.415-.75-1.886-1.264-1.886-2.113,0-1.106,1.14-2.172,2.908-2.172H10.2V7.6H7.131A7.668,7.668,0,0,0,2.16,8.923,5.831,5.831,0,0,0,.686,10.4,5.406,5.406,0,0,0-.1,13.169c0,2.172,1.081,3.5,4.578,5.51l3.065,1.738c1.3.731,1.729,1.3,1.729,2.133,0,1.2-1.14,2.31-2.869,2.31H-.08v3.318H6.365c4.382,0,6.956-2.074,6.956-5.628a5.1,5.1,0,0,0-1.356-3.555A29.494,29.494,0,0,0,6.031,15.2Zm37.236-1.817c-3.733,0-6.268,2.666-6.268,7.386C37,26.637,40.26,28.2,43.66,28.2h3.989V25.156H43.679a2.973,2.973,0,0,1-3.144-3.219h8.842V20.318C49.378,16.348,47.275,13.386,43.267,13.386Zm-2.731,6.063a4.024,4.024,0,0,1,.334-1.56,2.5,2.5,0,0,1,2.4-1.5,2.464,2.464,0,0,1,2.4,1.5A4.322,4.322,0,0,1,46,19.449H40.535ZM67.573,8.686c0-.355-.2-.513-.668-.513h-.648v1.8h.314v-.75h.2l.55.75h.373L67.1,9.2A.477.477,0,0,0,67.573,8.686Zm-1,.336V8.429h.295a.859.859,0,0,1,.295.039.308.308,0,0,1,.118.237c0,.217-.138.316-.413.316Z" transform="translate(0.1 -6.218)"/>
    <path id="Path_13" data-name="Path 13" class="cls-1" d="M334.426,7.1a1.426,1.426,0,1,0,1.426,1.426A1.429,1.429,0,0,0,334.426,7.1Zm0,2.653a1.209,1.209,0,1,1,1.209-1.209A1.209,1.209,0,0,1,334.426,9.753Z" transform="translate(-267.357 -5.808)"/>
  </g>
</svg>
